<svg width="30" height="30" viewBox="0 0 30 30" fill="none" xmlns="http://www.w3.org/2000/svg">
<circle cx="15" cy="15" r="15" fill="#828282"/>
<path d="M22.5 14.31V15C22.4991 16.6173 21.9754 18.191 21.007 19.4864C20.0386 20.7818 18.6775 21.7294 17.1265 22.1879C15.5756 22.6465 13.9179 22.5914 12.4009 22.031C10.8838 21.4705 9.58849 20.4346 8.70822 19.0778C7.82795 17.721 7.40984 16.1161 7.51626 14.5023C7.62267 12.8884 8.24791 11.3523 9.29871 10.1228C10.3495 8.89338 11.7696 8.03656 13.3471 7.68013C14.9247 7.3237 16.5752 7.48677 18.0525 8.14502" stroke="white" stroke-width="2" stroke-linecap="round" stroke-linejoin="round"/>
<path d="M22.5 9L15 16.5075L12.75 14.2575" stroke="white" stroke-width="2" stroke-linecap="round" stroke-linejoin="round"/>
</svg>
